<svg width="16" height="15" viewBox="0 0 16 15" fill="none" xmlns="http://www.w3.org/2000/svg">
<path d="M6.7191 2.42761C7.10218 1.10336 7.29372 0.441231 7.58898 0.273866C7.84388 0.129374 8.15595 0.129374 8.41086 0.273866C8.70612 0.441231 8.89766 1.10336 9.28074 2.42761L9.78084 4.15639C9.88387 4.51258 9.93539 4.69067 10.0404 4.82105C10.1331 4.93609 10.2547 5.02443 10.3927 5.07702C10.5492 5.13661 10.7345 5.13058 11.1051 5.11851L12.9038 5.05991C14.2816 5.01502 14.9705 4.99258 15.2209 5.22167C15.4371 5.41945 15.5335 5.71624 15.4749 6.00332C15.407 6.33585 14.8364 6.72262 13.6954 7.49617L12.2057 8.50602C11.8988 8.71408 11.7454 8.81811 11.6538 8.95829C11.5731 9.08197 11.5266 9.22491 11.5193 9.37245C11.5109 9.53966 11.5739 9.71402 11.6999 10.0627L12.3115 11.7553C12.7799 13.0518 13.0142 13.7001 12.8737 14.009C12.7524 14.2758 12.4999 14.4592 12.2088 14.4921C11.8715 14.5303 11.3274 14.1072 10.2391 13.261L8.81834 12.1563C8.52562 11.9287 8.37926 11.8149 8.21765 11.7712C8.07506 11.7326 7.92477 11.7326 7.78218 11.7712C7.62057 11.8149 7.47421 11.9287 7.1815 12.1563L5.76075 13.261C4.67246 14.1072 4.12831 14.5303 3.79107 14.4921C3.49991 14.4592 3.24745 14.2758 3.12615 14.009C2.98566 13.7001 3.21989 13.0518 3.68835 11.7553L4.29991 10.0627C4.42591 9.71402 4.48891 9.53966 4.48057 9.37245C4.47322 9.22491 4.42678 9.08197 4.346 8.95829C4.25446 8.81811 4.10101 8.71408 3.79409 8.50602L2.30447 7.49617C1.1634 6.72262 0.592872 6.33585 0.524939 6.00332C0.466289 5.71624 0.562722 5.41945 0.778913 5.22167C1.02933 4.99258 1.71824 5.01502 3.09606 5.05991L4.89476 5.11851C5.26535 5.13058 5.45065 5.13661 5.6071 5.07702C5.74515 5.02443 5.86674 4.93609 5.95941 4.82105C6.06444 4.69067 6.11596 4.51258 6.219 4.15639L6.7191 2.42761Z" fill="url(#paint0_linear_0_433)"/>
<defs>
<linearGradient id="paint0_linear_0_433" x1="15.4999" y1="7.99997" x2="-0.333415" y2="7.99997" gradientUnits="userSpaceOnUse">
<stop offset="0.458564" stop-color="#1D1D1B" stop-opacity="0.2"/>
<stop offset="0.458664" stop-color="#FFEB2D"/>
</linearGradient>
</defs>
</svg>
